<svg width="64" height="62" viewBox="0 0 64 62" fill="none" xmlns="http://www.w3.org/2000/svg">
<path d="M25.5075 0.646974C30.2747 -0.310143 35.2048 -0.204051 39.9232 0.956876L37.9479 8.45284C34.409 7.58214 30.7111 7.50306 27.1357 8.22094L26.4682 8.3643C23.1425 9.12812 20.021 10.5703 17.3145 12.5961L16.7797 13.0079C14.1382 15.1041 11.9878 17.7231 10.4755 20.6908C8.86259 23.8564 8.01761 27.3364 8.00545 30.8649C7.99339 34.3932 8.81417 37.8785 10.4053 41.0544C11.9965 44.2302 14.3169 47.014 17.1887 49.1933C19.8586 51.2193 22.941 52.6725 26.2299 53.4624L27.4084 26.8502C28.4239 20.8676 32.6878 19.8516 39.5009 21.948C39.2159 23.9377 38.1543 25.6764 36.6345 26.8502L37.8172 53.5629L39.7166 60.978C35.1381 62.0732 30.3673 62.177 25.7458 61.2844L25.2988 61.1952C20.6873 60.2383 16.3532 58.3087 12.6055 55.5474L12.2443 55.2775C8.53473 52.4626 5.51589 48.8912 3.4019 44.821L3.20022 44.4253C1.1449 40.3231 0.0536748 35.834 0.00212464 31.2802L0 30.8396C0.0156726 26.2819 1.07353 21.7851 3.09482 17.6712L3.29368 17.2741C5.37717 13.1852 8.36885 9.59286 12.0531 6.75295L12.4123 6.48029C16.1412 3.68914 20.4609 1.72969 25.0613 0.739734L25.5075 0.646974Z" fill="white"/>
<path d="M51.3741 55.5944C48.9684 57.3578 46.3163 58.7834 43.4973 59.8291L40.6288 52.6079C42.7429 51.8237 44.7317 50.7539 46.5359 49.4315L51.3741 55.5944Z" fill="white"/>
<path d="M60.0781 45.8575C58.6226 48.4138 56.7994 50.7584 54.6643 52.8215L49.0039 47.3515C50.6051 45.8042 51.9726 44.0453 53.0642 42.1281L60.0781 45.8575Z" fill="white"/>
<path d="M63.9304 33.5408C63.6768 36.4483 62.9985 39.3072 61.9164 42.0312L54.443 39.2589C55.2545 37.2161 55.7628 35.0719 55.9531 32.8915L63.9304 33.5408Z" fill="white"/>
<path d="M62.2657 20.7751C63.2578 23.5309 63.842 26.4093 64 29.3231L56.0051 29.7278L55.9791 29.3182C55.8306 27.2729 55.4019 25.2545 54.7044 23.3169L62.2657 20.7751Z" fill="white"/>
<path d="M25.2876 18.4112C27.4188 19.4805 28.2802 22.0753 27.2109 24.2065L26.3712 25.8797C25.1868 24.5463 24.4661 22.7918 24.4661 20.8679C24.4661 19.9421 24.6329 19.0552 24.9376 18.2355L25.2876 18.4112Z" fill="white"/>
<path d="M33.4223 13.4436C36.8364 14.0837 39.4389 17.0182 39.5698 20.5861L36.6331 20.0654C34.2853 19.649 32.7193 17.4076 33.1356 15.0599L33.4223 13.4436Z" fill="white"/>
<path d="M55.3712 9.76764C57.4375 11.8952 59.1823 14.2949 60.5531 16.8947L53.4205 20.4062C52.3924 18.4565 51.0834 16.6569 49.5337 15.0613L55.3712 9.76764Z" fill="white"/>
<path d="M32.2108 13.3164L32.1314 13.8701C31.7906 16.2301 29.6011 17.8671 27.2411 17.5264L25.3824 17.258C26.6633 14.9073 29.1563 13.3122 32.0218 13.3122C32.085 13.3122 32.148 13.3149 32.2108 13.3164Z" fill="white"/>
<path d="M44.4396 2.42135C47.2229 3.55291 49.8272 5.05935 52.1738 6.8956L47.136 12.9074L46.8036 12.6516C45.1313 11.3897 43.2926 10.3468 41.3357 9.5512L44.4396 2.42135Z" fill="white"/>
</svg>
