<svg width="119" height="32" viewBox="0 0 119 32" fill="none" xmlns="http://www.w3.org/2000/svg">
<path d="M19.4908 30.9163L18.7329 13.805C19.4989 13.2134 20.0338 12.3373 20.1774 11.3345C16.7441 10.2781 14.5954 10.7901 14.0836 13.805L13.3262 30.9163H19.4908Z" fill="white"/>
<mask id="mask0_425_4426" style="mask-type:alpha" maskUnits="userSpaceOnUse" x="12" y="6" width="9" height="25">
<path d="M16.4091 6.98193C18.512 6.98193 20.2167 8.68663 20.2167 10.7895C20.2167 12.0168 19.6352 13.1075 18.7336 13.8038L19.4914 30.9151H13.3268L14.0843 13.8038C13.1828 13.1075 12.6016 12.0167 12.6016 10.7895C12.6016 8.68663 14.3063 6.98193 16.4091 6.98193Z" fill="#D9D9D9"/>
</mask>
<g mask="url(#mask0_425_4426)">
<path d="M9.38994 5.5097C9.56162 4.3204 10.6649 3.49545 11.8542 3.66713L14.7254 4.0816C15.9147 4.25328 16.7397 5.35657 16.568 6.54587L16.4644 7.26368C16.2927 8.45298 15.1894 9.27793 14.0001 9.10625L11.1289 8.69178C9.93959 8.52011 9.11464 7.41681 9.28632 6.22751L9.38994 5.5097Z" fill="white"/>
<path d="M8.36411 9.65247C8.90297 8.57844 10.2105 8.1446 11.2845 8.68345L13.0157 9.55203C14.0898 10.0909 14.5236 11.3984 13.9848 12.4724L11.2203 17.9824C10.6815 19.0565 9.37396 19.4903 8.29993 18.9515L6.5687 18.0829C5.49466 17.544 5.06082 16.2365 5.59967 15.1625L8.36411 9.65247Z" fill="white"/>
<path d="M17.39 5.49859C17.5999 4.31542 18.7291 3.5264 19.9123 3.73626L22.0156 4.10932C23.1988 4.31918 23.9878 5.44844 23.778 6.6316L23.3585 8.99639C23.1487 10.1795 22.0194 10.9686 20.8362 10.7587L18.7329 10.3857C17.5497 10.1758 16.7607 9.04653 16.9706 7.86337L17.39 5.49859Z" fill="white"/>
</g>
<mask id="path-4-inside-1_425_4426" fill="white">
<path d="M22.1931 30.4234C23.6137 29.8965 24.9501 29.178 26.1625 28.2893L23.7244 25.1836C22.8151 25.85 21.8128 26.3889 20.7474 26.7841L22.1931 30.4234Z"/>
</mask>
<path d="M22.1931 30.4234C23.6137 29.8965 24.9501 29.178 26.1625 28.2893L23.7244 25.1836C22.8151 25.85 21.8128 26.3889 20.7474 26.7841L22.1931 30.4234Z" stroke="white" stroke-width="7.25247" mask="url(#path-4-inside-1_425_4426)"/>
<mask id="path-5-inside-2_425_4426" fill="white">
<path d="M27.8206 26.892C28.8966 25.8523 29.815 24.6707 30.5485 23.3824L27.0139 21.5034C26.4638 22.4696 25.775 23.3558 24.968 24.1356L27.8206 26.892Z"/>
</mask>
<path d="M27.8206 26.892C28.8966 25.8523 29.815 24.6707 30.5485 23.3824L27.0139 21.5034C26.4638 22.4696 25.775 23.3558 24.968 24.1356L27.8206 26.892Z" stroke="white" stroke-width="7.25247" mask="url(#path-5-inside-2_425_4426)"/>
<mask id="path-6-inside-3_425_4426" fill="white">
<path d="M31.4751 21.4542C32.0205 20.0815 32.3621 18.6411 32.4899 17.1758L28.47 16.8485C28.3741 17.9474 28.1179 19.0277 27.7089 20.0572L31.4751 21.4542Z"/>
</mask>
<path d="M31.4751 21.4542C32.0205 20.0815 32.3621 18.6411 32.4899 17.1758L28.47 16.8485C28.3741 17.9474 28.1179 19.0277 27.7089 20.0572L31.4751 21.4542Z" stroke="white" stroke-width="7.25247" mask="url(#path-6-inside-3_425_4426)"/>
<mask id="path-7-inside-4_425_4426" fill="white">
<path d="M32.5248 15.0502C32.4452 13.5818 32.151 12.1316 31.651 10.7429L27.8408 12.0237C28.2158 13.0653 28.4364 14.1529 28.4962 15.2542L32.5248 15.0502Z"/>
</mask>
<path d="M32.5248 15.0502C32.4452 13.5818 32.151 12.1316 31.651 10.7429L27.8408 12.0237C28.2158 13.0653 28.4364 14.1529 28.4962 15.2542L32.5248 15.0502Z" stroke="white" stroke-width="7.25247" mask="url(#path-7-inside-4_425_4426)"/>
<mask id="path-8-inside-5_425_4426" fill="white">
<path d="M30.7881 8.78726C30.0973 7.47711 29.2181 6.26797 28.1768 5.19576L25.2352 7.86339C26.0162 8.66754 26.6755 9.5744 27.1937 10.557L30.7881 8.78726Z"/>
</mask>
<path d="M30.7881 8.78726C30.0973 7.47711 29.2181 6.26797 28.1768 5.19576L25.2352 7.86339C26.0162 8.66754 26.6755 9.5744 27.1937 10.557L30.7881 8.78726Z" stroke="white" stroke-width="7.25247" mask="url(#path-8-inside-5_425_4426)"/>
<mask id="path-9-inside-6_425_4426" fill="white">
<path d="M26.5654 3.74836C25.3828 2.823 24.0707 2.06392 22.6681 1.49369L21.1036 5.08683C22.1556 5.5145 23.1396 6.08381 24.0266 6.77783L26.5654 3.74836Z"/>
</mask>
<path d="M26.5654 3.74836C25.3828 2.823 24.0707 2.06392 22.6681 1.49369L21.1036 5.08683C22.1556 5.5145 23.1396 6.08381 24.0266 6.77783L26.5654 3.74836Z" stroke="white" stroke-width="7.25247" mask="url(#path-9-inside-6_425_4426)"/>
<mask id="path-10-inside-7_425_4426" fill="white">
<path d="M20.288 31.0022C17.9062 31.5719 15.4213 31.6093 13.0224 31.1116C10.6234 30.6138 8.37348 29.5939 6.44374 28.1296C4.514 26.6652 2.95526 24.7949 1.88606 22.6609C0.816867 20.5269 0.265374 18.1854 0.273527 15.8144C0.28168 13.4435 0.849264 11.1056 1.93311 8.97848C3.01696 6.85138 4.58853 4.99113 6.5283 3.53919C8.46806 2.08726 10.7249 1.08188 13.1273 0.599532C15.5296 0.117179 18.0142 0.170552 20.392 0.75559L19.3965 4.53326C17.6132 4.09448 15.7498 4.05445 13.948 4.41621C12.1463 4.77798 10.4536 5.53201 8.99877 6.62096C7.54395 7.70991 6.36527 9.1051 5.55238 10.7004C4.7395 12.2957 4.31381 14.0492 4.30769 15.8274C4.30158 17.6056 4.7152 19.3617 5.51709 20.9622C6.31899 22.5628 7.48805 23.9655 8.93535 25.0638C10.3827 26.162 12.0701 26.9269 13.8693 27.3002C15.6686 27.6736 17.5322 27.6455 19.3185 27.2182L20.288 31.0022Z"/>
</mask>
<path d="M20.288 31.0022C17.9062 31.5719 15.4213 31.6093 13.0224 31.1116C10.6234 30.6138 8.37348 29.5939 6.44374 28.1296C4.514 26.6652 2.95526 24.7949 1.88606 22.6609C0.816867 20.5269 0.265374 18.1854 0.273527 15.8144C0.28168 13.4435 0.849264 11.1056 1.93311 8.97848C3.01696 6.85138 4.58853 4.99113 6.5283 3.53919C8.46806 2.08726 10.7249 1.08188 13.1273 0.599532C15.5296 0.117179 18.0142 0.170552 20.392 0.75559L19.3965 4.53326C17.6132 4.09448 15.7498 4.05445 13.948 4.41621C12.1463 4.77798 10.4536 5.53201 8.99877 6.62096C7.54395 7.70991 6.36527 9.1051 5.55238 10.7004C4.7395 12.2957 4.31381 14.0492 4.30769 15.8274C4.30158 17.6056 4.7152 19.3617 5.51709 20.9622C6.31899 22.5628 7.48805 23.9655 8.93535 25.0638C10.3827 26.162 12.0701 26.9269 13.8693 27.3002C15.6686 27.6736 17.5322 27.6455 19.3185 27.2182L20.288 31.0022Z" stroke="white" stroke-width="7.25247" mask="url(#path-10-inside-7_425_4426)"/>
<path d="M40.3034 13.5H38.8634V5.34H40.3034V13.5ZM47.9188 5.34L45.4228 10.224V13.5H43.9828V10.248L41.4628 5.34H42.9988L44.7628 8.82L46.4308 5.34H47.9188ZM49.0821 13.5V5.34H51.5661C52.1741 5.34 52.6541 5.428 53.0061 5.604C53.3661 5.78 53.6221 6.028 53.7741 6.348C53.9341 6.668 54.0141 7.044 54.0141 7.476V7.812C54.0141 8.444 53.7421 8.928 53.1981 9.264C53.5821 9.416 53.8741 9.636 54.0741 9.924C54.2741 10.212 54.3741 10.556 54.3741 10.956V11.292C54.3741 11.732 54.2941 12.12 54.1341 12.456C53.9741 12.784 53.7101 13.04 53.3421 13.224C52.9741 13.408 52.4821 13.5 51.8661 13.5H49.0821ZM51.5661 6.66H50.5221V8.7H51.5661C51.8861 8.7 52.1261 8.628 52.2861 8.484C52.4541 8.332 52.5381 8.128 52.5381 7.872V7.476C52.5381 7.22 52.4541 7.02 52.2861 6.876C52.1261 6.732 51.8861 6.66 51.5661 6.66ZM51.8661 10.02H50.5221V12.18H51.8661C52.2021 12.18 52.4581 12.1 52.6341 11.94C52.8101 11.78 52.8981 11.564 52.8981 11.292V10.896C52.8981 10.624 52.8101 10.412 52.6341 10.26C52.4581 10.1 52.2021 10.02 51.8661 10.02ZM61.8736 8.556V10.272C61.8736 11.312 61.6136 12.132 61.0936 12.732C60.5736 13.324 59.8136 13.62 58.8136 13.62C57.8056 13.62 57.0416 13.324 56.5216 12.732C56.0096 12.132 55.7536 11.312 55.7536 10.272V8.556C55.7536 7.516 56.0096 6.7 56.5216 6.108C57.0416 5.516 57.8056 5.22 58.8136 5.22C59.8136 5.22 60.5736 5.516 61.0936 6.108C61.6136 6.7 61.8736 7.516 61.8736 8.556ZM60.3976 8.556C60.3976 7.9 60.2696 7.408 60.0136 7.08C59.7576 6.744 59.3576 6.576 58.8136 6.576C58.2696 6.576 57.8696 6.744 57.6136 7.08C57.3576 7.408 57.2296 7.9 57.2296 8.556V10.272C57.2296 10.928 57.3576 11.424 57.6136 11.76C57.8696 12.096 58.2696 12.264 58.8136 12.264C59.3576 12.264 59.7576 12.096 60.0136 11.76C60.2696 11.424 60.3976 10.928 60.3976 10.272V8.556ZM62.8054 6.72V5.34H68.8054V6.72H66.5254V13.5H65.0854V6.72H62.8054ZM71.8698 12.288C72.7978 12.288 73.2618 11.944 73.2618 11.256C73.2618 10.976 73.1898 10.756 73.0458 10.596C72.9098 10.436 72.6538 10.296 72.2778 10.176L71.2938 9.852C70.1178 9.468 69.5298 8.696 69.5298 7.536C69.5298 6.864 69.7378 6.312 70.1538 5.88C70.5778 5.44 71.2378 5.22 72.1338 5.22C72.5098 5.22 72.8818 5.264 73.2498 5.352C73.6178 5.432 74.0098 5.564 74.4258 5.748L73.9818 6.984C73.5978 6.832 73.2698 6.724 72.9978 6.66C72.7338 6.588 72.4618 6.552 72.1818 6.552C71.8138 6.552 71.5218 6.62 71.3058 6.756C71.0978 6.884 70.9938 7.12 70.9938 7.464C70.9938 7.72 71.0658 7.932 71.2098 8.1C71.3618 8.26 71.6098 8.396 71.9538 8.508L72.9378 8.832C73.5298 9.032 73.9738 9.324 74.2698 9.708C74.5738 10.084 74.7258 10.584 74.7258 11.208C74.7258 11.928 74.4978 12.512 74.0418 12.96C73.5858 13.4 72.8698 13.62 71.8938 13.62C71.5098 13.62 71.1098 13.576 70.6938 13.488C70.2858 13.392 69.8378 13.232 69.3498 13.008L69.7938 11.772C70.2418 11.964 70.6218 12.1 70.9338 12.18C71.2538 12.252 71.5658 12.288 71.8698 12.288Z" fill="white"/>
<path d="M37.8914 21.048V20.34H43.5674V21.048H41.1194V28.5H40.3394V21.048H37.8914ZM49.5436 27.792V28.5H45.1036V20.34H49.4236V21.048H45.8836V24.012H49.0636V24.72H45.8836V27.792H49.5436ZM51.8875 25.344C51.8875 27.056 52.5435 27.912 53.8555 27.912C54.1355 27.912 54.4115 27.88 54.6835 27.816C54.9555 27.752 55.2715 27.636 55.6315 27.468L55.9075 28.128C55.5475 28.296 55.1955 28.42 54.8515 28.5C54.5075 28.58 54.1715 28.62 53.8435 28.62C52.9475 28.62 52.2595 28.336 51.7795 27.768C51.3075 27.2 51.0715 26.392 51.0715 25.344V23.496C51.0715 22.448 51.3075 21.64 51.7795 21.072C52.2595 20.504 52.9475 20.22 53.8435 20.22C54.1715 20.22 54.5155 20.26 54.8755 20.34C55.2355 20.42 55.5795 20.544 55.9075 20.712L55.6435 21.372C55.0435 21.076 54.4435 20.928 53.8435 20.928C52.5395 20.928 51.8875 21.784 51.8875 23.496V25.344ZM62.4399 28.5V24.72H58.5399V28.5H57.7599V20.34H58.5399V24.012H62.4399V20.34H63.2199V28.5H62.4399ZM65.9747 28.5V20.34H66.9107C67.4307 21.124 67.9147 21.896 68.3627 22.656C68.8187 23.408 69.2547 24.176 69.6707 24.96C70.0867 25.744 70.4907 26.564 70.8827 27.42L70.7747 23.844V20.34H71.5547V28.5H70.6187C70.0187 27.212 69.4027 25.992 68.7707 24.84C68.1467 23.68 67.4587 22.516 66.7067 21.348L66.7547 25.008V28.5H65.9747ZM79.7305 23.496V25.332C79.7305 25.996 79.6185 26.576 79.3945 27.072C79.1705 27.56 78.8425 27.94 78.4105 28.212C77.9865 28.484 77.4665 28.62 76.8505 28.62C75.9305 28.62 75.2185 28.32 74.7145 27.72C74.2185 27.12 73.9705 26.324 73.9705 25.332V23.496C73.9705 22.832 74.0825 22.256 74.3065 21.768C74.5305 21.28 74.8585 20.9 75.2905 20.628C75.7225 20.356 76.2425 20.22 76.8505 20.22C77.4585 20.22 77.9745 20.356 78.3985 20.628C78.8305 20.9 79.1585 21.28 79.3825 21.768C79.6145 22.256 79.7305 22.832 79.7305 23.496ZM78.9145 23.496C78.9145 22.688 78.7345 22.06 78.3745 21.612C78.0225 21.156 77.5145 20.928 76.8505 20.928C76.1945 20.928 75.6865 21.156 75.3265 21.612C74.9665 22.06 74.7865 22.688 74.7865 23.496V25.332C74.7865 26.132 74.9665 26.764 75.3265 27.228C75.6865 27.684 76.1945 27.912 76.8505 27.912C77.5145 27.912 78.0225 27.684 78.3745 27.228C78.7345 26.764 78.9145 26.132 78.9145 25.332V23.496ZM86.4546 27.792V28.5H82.1466V20.34H82.9266V27.792H86.4546ZM93.3242 23.496V25.332C93.3242 25.996 93.2122 26.576 92.9882 27.072C92.7642 27.56 92.4362 27.94 92.0042 28.212C91.5802 28.484 91.0602 28.62 90.4442 28.62C89.5242 28.62 88.8122 28.32 88.3082 27.72C87.8122 27.12 87.5642 26.324 87.5642 25.332V23.496C87.5642 22.832 87.6762 22.256 87.9002 21.768C88.1242 21.28 88.4522 20.9 88.8842 20.628C89.3162 20.356 89.8362 20.22 90.4442 20.22C91.0522 20.22 91.5682 20.356 91.9922 20.628C92.4242 20.9 92.7522 21.28 92.9762 21.768C93.2082 22.256 93.3242 22.832 93.3242 23.496ZM92.5082 23.496C92.5082 22.688 92.3282 22.06 91.9682 21.612C91.6162 21.156 91.1082 20.928 90.4442 20.928C89.7882 20.928 89.2802 21.156 88.9202 21.612C88.5602 22.06 88.3802 22.688 88.3802 23.496V25.332C88.3802 26.132 88.5602 26.764 88.9202 27.228C89.2802 27.684 89.7882 27.912 90.4442 27.912C91.1082 27.912 91.6162 27.684 91.9682 27.228C92.3282 26.764 92.5082 26.132 92.5082 25.332V23.496ZM100.732 27.9C100.484 28.076 100.156 28.24 99.7484 28.392C99.3404 28.544 98.8444 28.62 98.2604 28.62C97.3404 28.62 96.6324 28.32 96.1364 27.72C95.6404 27.12 95.3924 26.324 95.3924 25.332V23.496C95.3924 22.448 95.6404 21.64 96.1364 21.072C96.6404 20.504 97.3524 20.22 98.2724 20.22C98.6404 20.22 99.0244 20.26 99.4244 20.34C99.8324 20.42 100.216 20.544 100.576 20.712L100.312 21.372C99.9684 21.22 99.6244 21.108 99.2804 21.036C98.9364 20.964 98.6004 20.928 98.2724 20.928C96.8964 20.928 96.2084 21.784 96.2084 23.496V25.332C96.2084 26.14 96.3844 26.776 96.7364 27.24C97.0964 27.704 97.6244 27.936 98.3204 27.936C98.9764 27.936 99.5364 27.792 100 27.504V25.068H98.3564V24.36H100.732V27.9ZM103.786 28.5H103.006V20.34H103.786V28.5ZM110.985 27.792V28.5H106.545V20.34H110.865V21.048H107.325V24.012H110.505V24.72H107.325V27.792H110.985ZM114.469 27.936C115.005 27.936 115.421 27.812 115.717 27.564C116.013 27.308 116.161 26.94 116.161 26.46C116.161 26.06 116.053 25.716 115.837 25.428C115.629 25.132 115.289 24.92 114.817 24.792L113.857 24.528C113.225 24.352 112.769 24.08 112.489 23.712C112.209 23.344 112.069 22.9 112.069 22.38C112.069 21.996 112.145 21.64 112.297 21.312C112.449 20.984 112.697 20.72 113.041 20.52C113.393 20.32 113.869 20.22 114.469 20.22C114.813 20.22 115.177 20.264 115.561 20.352C115.953 20.432 116.341 20.564 116.725 20.748L116.461 21.42C116.077 21.236 115.721 21.104 115.393 21.024C115.065 20.944 114.757 20.904 114.469 20.904C113.957 20.904 113.561 21.016 113.281 21.24C113.001 21.464 112.861 21.824 112.861 22.32C112.861 22.664 112.953 22.964 113.137 23.22C113.321 23.468 113.657 23.66 114.145 23.796L115.105 24.06C115.721 24.228 116.181 24.508 116.485 24.9C116.797 25.292 116.953 25.78 116.953 26.364C116.953 27.028 116.757 27.572 116.365 27.996C115.981 28.412 115.349 28.62 114.469 28.62C114.093 28.62 113.693 28.576 113.269 28.488C112.845 28.4 112.421 28.26 111.997 28.068L112.249 27.408C112.657 27.6 113.037 27.736 113.389 27.816C113.741 27.896 114.101 27.936 114.469 27.936Z" fill="#F9FAFB"/>
</svg>
