<svg width="208" height="41" viewBox="0 0 208 41" fill="none" xmlns="http://www.w3.org/2000/svg">
<path d="M50.7857 28.9911V11.2124H61.9355V13.3966H53.4779V19.0096H60.4878V21.1685H53.4779V28.9911H50.7857ZM64.4745 28.9911V16.3936H66.8874L67.116 18.7811C67.5562 17.9514 68.1658 17.2995 68.9446 16.8254C69.7405 16.3344 70.6971 16.0888 71.8146 16.0888V18.9081H71.0781C70.3331 18.9081 69.6643 19.035 69.0716 19.289C68.4959 19.5261 68.0303 19.9409 67.6747 20.5335C67.3361 21.1092 67.1668 21.9135 67.1668 22.9464V28.9911H64.4745ZM79.6681 29.2959C78.4659 29.2959 77.3822 29.025 76.4171 28.4832C75.4689 27.9244 74.7154 27.154 74.1566 26.1719C73.5979 25.1729 73.3185 24.0131 73.3185 22.6924C73.3185 21.3717 73.5979 20.2203 74.1566 19.2382C74.7323 18.2392 75.5027 17.4688 76.4679 16.927C77.433 16.3682 78.5082 16.0888 79.6934 16.0888C80.8956 16.0888 81.9708 16.3682 82.919 16.927C83.8842 17.4688 84.6461 18.2392 85.2049 19.2382C85.7806 20.2203 86.0684 21.3717 86.0684 22.6924C86.0684 24.0131 85.7806 25.1729 85.2049 26.1719C84.6461 27.154 83.8842 27.9244 82.919 28.4832C81.9539 29.025 80.8702 29.2959 79.6681 29.2959ZM79.6681 26.9847C80.3115 26.9847 80.9041 26.8238 81.4459 26.5021C82.0047 26.1804 82.4534 25.7063 82.792 25.0798C83.1307 24.4364 83.3 23.6406 83.3 22.6924C83.3 21.7442 83.1307 20.9568 82.792 20.3304C82.4703 19.6869 82.0301 19.2044 81.4713 18.8827C80.9295 18.5609 80.3369 18.4001 79.6934 18.4001C79.05 18.4001 78.4489 18.5609 77.8902 18.8827C77.3483 19.2044 76.9081 19.6869 76.5695 20.3304C76.2308 20.9568 76.0615 21.7442 76.0615 22.6924C76.0615 23.6406 76.2308 24.4364 76.5695 25.0798C76.9081 25.7063 77.3483 26.1804 77.8902 26.5021C78.432 26.8238 79.0246 26.9847 79.6681 26.9847ZM88.9799 28.9911V16.3936H91.3673L91.5705 18.6033C91.9599 17.8244 92.5272 17.2148 93.2722 16.7746C94.0341 16.3174 94.9061 16.0888 95.8882 16.0888C97.4121 16.0888 98.6058 16.5629 99.4693 17.5111C100.35 18.4593 100.79 19.8732 100.79 21.7527V28.9911H98.1232V22.032C98.1232 19.5938 97.1242 18.3747 95.1262 18.3747C94.1273 18.3747 93.2976 18.7303 92.6372 19.4414C91.9938 20.1526 91.6721 21.1685 91.6721 22.4892V28.9911H88.9799ZM109.244 28.9911C108.008 28.9911 107.026 28.6948 106.298 28.1022C105.569 27.4927 105.205 26.4175 105.205 24.8766V18.6541H103.047V16.3936H105.205L105.536 13.1934H107.898V16.3936H111.453V18.6541H107.898V24.8766C107.898 25.5709 108.042 26.0534 108.329 26.3243C108.634 26.5783 109.151 26.7053 109.879 26.7053H111.326V28.9911H109.244ZM119.799 29.2959C118.563 29.2959 117.463 29.025 116.497 28.4832C115.549 27.9244 114.804 27.154 114.262 26.1719C113.721 25.1899 113.45 24.047 113.45 22.7432C113.45 21.4225 113.712 20.2626 114.237 19.2636C114.779 18.2646 115.524 17.4858 116.472 16.927C117.437 16.3682 118.555 16.0888 119.825 16.0888C121.061 16.0888 122.136 16.3682 123.05 16.927C123.965 17.4688 124.676 18.1969 125.184 19.1112C125.692 20.0256 125.946 21.033 125.946 22.1336C125.946 22.3029 125.937 22.4892 125.92 22.6924C125.92 22.8786 125.912 23.0903 125.895 23.3273H116.091C116.176 24.5465 116.574 25.4777 117.285 26.1211C118.013 26.7476 118.851 27.0609 119.799 27.0609C120.561 27.0609 121.196 26.8916 121.704 26.5529C122.229 26.1973 122.618 25.7232 122.872 25.1306H125.565C125.226 26.3159 124.549 27.3064 123.533 28.1022C122.534 28.898 121.289 29.2959 119.799 29.2959ZM119.799 18.2985C118.902 18.2985 118.106 18.5694 117.412 19.1112C116.718 19.6361 116.294 20.4319 116.142 21.4987H123.253C123.203 20.5166 122.855 19.7377 122.212 19.162C121.569 18.5863 120.764 18.2985 119.799 18.2985ZM128.739 28.9911V16.3936H131.126L131.33 18.6033C131.719 17.8244 132.286 17.2148 133.031 16.7746C133.793 16.3174 134.665 16.0888 135.647 16.0888C137.171 16.0888 138.365 16.5629 139.228 17.5111C140.109 18.4593 140.549 19.8732 140.549 21.7527V28.9911H137.882V22.032C137.882 19.5938 136.883 18.3747 134.885 18.3747C133.886 18.3747 133.057 18.7303 132.396 19.4414C131.753 20.1526 131.431 21.1685 131.431 22.4892V28.9911H128.739ZM149.46 29.2959C148.241 29.2959 147.166 29.0081 146.234 28.4324C145.303 27.8567 144.575 27.0694 144.05 26.0704C143.525 25.0714 143.263 23.9369 143.263 22.667C143.263 21.3971 143.525 20.2711 144.05 19.289C144.575 18.29 145.303 17.5111 146.234 16.9524C147.183 16.3767 148.266 16.0888 149.485 16.0888C150.484 16.0888 151.356 16.2836 152.101 16.673C152.863 17.0624 153.456 17.6127 153.879 18.3239V10.7044H156.572V28.9911H154.159L153.879 27.0355C153.473 27.6281 152.914 28.153 152.203 28.6102C151.492 29.0673 150.578 29.2959 149.46 29.2959ZM149.943 26.9593C151.094 26.9593 152.034 26.5614 152.762 25.7656C153.507 24.9698 153.879 23.9454 153.879 22.6924C153.879 21.4225 153.507 20.3981 152.762 19.6192C152.034 18.8234 151.094 18.4255 149.943 18.4255C148.791 18.4255 147.843 18.8234 147.098 19.6192C146.353 20.3981 145.98 21.4225 145.98 22.6924C145.98 23.5221 146.15 24.2586 146.488 24.902C146.827 25.5455 147.293 26.0534 147.885 26.4259C148.495 26.7815 149.181 26.9593 149.943 26.9593ZM159.966 28.9911V10.7044H162.658V28.9911H159.966ZM170.334 29.2959C169.268 29.2959 168.387 29.1181 167.693 28.7626C166.999 28.407 166.482 27.9414 166.144 27.3657C165.805 26.773 165.636 26.1296 165.636 25.4354C165.636 24.2163 166.11 23.2511 167.058 22.54C168.006 21.8288 169.361 21.4733 171.122 21.4733H174.423V21.2447C174.423 20.2626 174.153 19.5261 173.611 19.035C173.086 18.544 172.4 18.2985 171.553 18.2985C170.808 18.2985 170.157 18.4847 169.598 18.8573C169.056 19.2128 168.726 19.7462 168.607 20.4573H165.915C166 19.543 166.305 18.7641 166.829 18.1207C167.371 17.4604 168.049 16.9609 168.861 16.6222C169.691 16.2666 170.597 16.0888 171.579 16.0888C173.34 16.0888 174.703 16.5545 175.668 17.4858C176.633 18.4001 177.116 19.6531 177.116 21.2447V28.9911H174.779L174.55 26.8323C174.195 27.5265 173.678 28.1107 173.001 28.5848C172.324 29.0589 171.435 29.2959 170.334 29.2959ZM170.868 27.1117C171.596 27.1117 172.205 26.9424 172.696 26.6037C173.204 26.2481 173.594 25.7825 173.865 25.2068C174.153 24.6311 174.33 23.9962 174.398 23.3019H171.401C170.334 23.3019 169.572 23.4882 169.115 23.8607C168.675 24.2332 168.455 24.6988 168.455 25.2576C168.455 25.8333 168.667 26.2905 169.09 26.6291C169.53 26.9508 170.123 27.1117 170.868 27.1117ZM187.341 29.2959C186.359 29.2959 185.487 29.1012 184.725 28.7118C183.98 28.3223 183.387 27.772 182.947 27.0609L182.668 28.9911H180.255V10.7044H182.947V18.3493C183.353 17.7567 183.912 17.2318 184.623 16.7746C185.334 16.3174 186.249 16.0888 187.366 16.0888C188.585 16.0888 189.661 16.3767 190.592 16.9524C191.523 17.5281 192.251 18.3154 192.776 19.3144C193.318 20.3134 193.589 21.4479 193.589 22.7178C193.589 23.9877 193.318 25.1222 192.776 26.1211C192.251 27.1032 191.523 27.8821 190.592 28.4578C189.661 29.0165 188.577 29.2959 187.341 29.2959ZM186.884 26.9593C188.035 26.9593 188.983 26.5699 189.728 25.791C190.473 24.9952 190.846 23.9623 190.846 22.6924C190.846 21.8627 190.677 21.1262 190.338 20.4827C189.999 19.8393 189.534 19.3398 188.941 18.9842C188.348 18.6117 187.663 18.4255 186.884 18.4255C185.732 18.4255 184.784 18.8234 184.039 19.6192C183.311 20.415 182.947 21.4394 182.947 22.6924C182.947 23.9623 183.311 24.9952 184.039 25.791C184.784 26.5699 185.732 26.9593 186.884 26.9593ZM201.53 29.2959C199.938 29.2959 198.626 28.9065 197.593 28.1276C196.56 27.3487 195.967 26.3159 195.815 25.029H198.533C198.668 25.6047 198.99 26.1042 199.498 26.5275C200.006 26.9339 200.674 27.1371 201.504 27.1371C202.317 27.1371 202.91 26.9678 203.282 26.6291C203.655 26.2905 203.841 25.901 203.841 25.4608C203.841 24.8174 203.578 24.3856 203.053 24.1655C202.545 23.9284 201.834 23.7168 200.92 23.5305C200.209 23.3781 199.498 23.175 198.787 22.921C198.092 22.667 197.508 22.3114 197.034 21.8542C196.577 21.3801 196.348 20.7452 196.348 19.9494C196.348 18.8488 196.772 17.9345 197.618 17.2064C198.465 16.4614 199.65 16.0888 201.174 16.0888C202.579 16.0888 203.714 16.4275 204.577 17.1048C205.458 17.7821 205.974 18.7387 206.127 19.9748H203.536C203.451 19.4329 203.197 19.0096 202.774 18.7049C202.368 18.4001 201.817 18.2477 201.123 18.2477C200.446 18.2477 199.921 18.3916 199.548 18.6795C199.176 18.9504 198.99 19.306 198.99 19.7462C198.99 20.1864 199.244 20.5335 199.752 20.7875C200.277 21.0415 200.962 21.2701 201.809 21.4733C202.656 21.6595 203.434 21.8796 204.146 22.1336C204.874 22.3707 205.458 22.7263 205.898 23.2004C206.338 23.6745 206.558 24.3687 206.558 25.283C206.575 26.4344 206.127 27.3911 205.212 28.153C204.315 28.915 203.087 29.2959 201.53 29.2959Z" fill="white"/>
<rect x="9.552" y="25.0769" width="3.63874" height="6.30714" rx="0.982459" fill="white"/>
<rect x="9.552" y="23.1364" width="12.6143" height="3.88132" rx="0.970329" fill="white"/>
<rect x="9.552" y="16.3441" width="18.1937" height="3.88132" rx="0.970329" fill="white"/>
<rect x="9.552" y="9.5517" width="21.8324" height="3.88132" rx="0.970329" fill="white"/>
</svg>
